<svg width="164" height="164" viewBox="0 0 164 164" fill="none" xmlns="http://www.w3.org/2000/svg">
<rect width="164" height="164" rx="82" fill="#189A7E"/>
<path d="M123.253 106.956C119.894 103.572 111.758 98.6324 107.811 96.6419C102.67 94.0528 102.247 93.8413 98.2065 96.8429C95.5115 98.8461 93.7197 100.636 90.5656 99.9629C87.4115 99.2903 80.5574 95.4975 74.5559 89.5155C68.5545 83.5334 64.5415 76.4811 63.8667 73.3377C63.1918 70.1944 65.0111 68.4239 66.9954 65.7227C69.792 61.9152 69.5804 61.2806 67.19 56.1404C65.3263 52.1425 60.2429 44.0832 56.8455 40.7411C53.2112 37.1514 53.2112 37.786 50.8694 38.759C48.9629 39.5611 47.1339 40.5361 45.4052 41.6718C42.0205 43.9203 40.142 45.7882 38.8283 48.5951C37.5147 51.4021 36.9245 57.9828 43.7087 70.3065C50.4929 82.6302 55.2526 88.9317 65.1042 98.7551C74.9558 108.579 82.5311 113.86 93.6055 120.071C107.305 127.743 112.56 126.248 115.375 124.936C118.191 123.625 120.067 121.763 122.32 118.379C123.459 116.653 124.436 114.826 125.24 112.921C126.215 110.588 126.85 110.588 123.253 106.956Z" stroke="#F9F9F9" strokeWidth="4" stroke-miterlimit="10"/>
</svg>
