<svg width="54" height="72" viewBox="0 0 54 72" fill="none" xmlns="http://www.w3.org/2000/svg">
<path d="M52.3219 60.5691C51.7003 56.3227 49.2861 53.3567 45.1462 51.7511C43.9334 51.2809 42.7053 50.7884 41.5173 50.3127C39.4407 49.4801 37.2935 48.6197 35.1502 47.8466C33.9221 47.4062 33.2661 46.9379 33.31 45.7281C33.3233 45.3564 33.2146 44.9903 33.1174 44.6595C33.0754 44.5182 33.0735 44.509 33.3577 44.3287C34.0766 43.8734 34.7936 43.3902 35.4858 42.9238C36.0597 42.5372 36.6528 42.1377 37.2439 41.7548C37.5185 41.5764 37.8217 41.4649 38.0563 41.4538C38.6589 41.4278 39.2767 41.4333 39.8736 41.437C40.3522 41.4408 40.8442 41.4445 41.3324 41.4315C44.6351 41.3516 47.0436 38.9728 47.0588 35.7746C47.0665 34.5369 47.0798 33.2973 47.0932 32.0597C47.1351 28.3912 47.1771 24.6001 47.0207 20.874C46.7137 13.591 43.4166 8.17386 37.223 4.77488C37.1238 4.72099 37.0056 4.56489 36.9808 4.4571C36.3935 1.91855 34.1872 0.104769 31.6185 0.0490174C28.6609 -0.016026 25.5584 -0.016026 22.3929 0.047159C19.8453 0.0991937 17.5112 1.95014 17.0764 4.26011C17.0135 4.59648 16.8914 4.74887 16.5596 4.91612C14.6165 5.89177 12.9327 7.24467 11.4453 9.02686C8.54107 12.4277 6.95452 16.8934 6.93736 21.3089C6.9221 25.7226 6.92019 30.4094 6.93545 35.6389C6.94498 39.0044 9.36486 41.3887 12.8183 41.4333C13.2302 41.4389 13.6478 41.437 14.0501 41.4333C14.6737 41.4296 15.3182 41.4259 15.9456 41.4519C16.1802 41.4631 16.4853 41.5764 16.7618 41.7548C17.3377 42.1265 17.9174 42.5186 18.4799 42.8959C19.1855 43.3716 19.9139 43.8622 20.65 44.325C20.9227 44.4959 20.9188 44.509 20.8788 44.6762L20.8464 44.8156C20.711 45.388 20.5718 45.9789 20.5337 46.5829C20.5051 47.0587 20.3258 47.2687 19.7671 47.4842C16.0162 48.9319 12.2138 50.4298 8.4667 51.9388C4.67575 53.4645 2.43894 56.161 1.8192 59.9521C1.38251 62.63 0.980154 65.3581 0.59305 67.997C0.417614 69.1883 0.242178 70.3795 0.0648351 71.5707L0 72L54 71.9981L52.3219 60.5691ZM20.4288 3.81596C20.9417 3.24543 21.7007 2.8942 22.4577 2.87933C25.7224 2.81057 28.6819 2.81243 31.506 2.88119C32.3088 2.90163 33.0583 3.26216 33.5655 3.87357C34.0365 4.44223 34.231 5.16514 34.0994 5.85646C33.7924 7.45467 33.6075 9.10491 33.4282 10.7013C33.3615 11.2885 33.2947 11.8925 33.2204 12.4946H20.7796C20.6881 11.7791 20.5947 11.0655 20.5012 10.3537C20.2858 8.7128 20.0626 7.01609 19.8681 5.34912C19.809 4.83621 20.015 4.2787 20.4288 3.81596ZM11.7866 24.89C11.6417 26.2057 11.6493 27.5494 11.657 28.8465C11.6608 29.5861 11.6665 30.3518 11.6417 31.0989C11.5559 33.6932 12.3149 36.1369 13.9624 38.5714C13.9701 38.5826 13.9777 38.5937 13.9853 38.6049C13.6287 38.6049 13.3045 38.6067 12.9785 38.6049C10.9838 38.5937 9.83968 37.4861 9.83777 35.5664C9.83587 34.4086 9.83205 33.249 9.82824 32.0894C9.8168 28.5789 9.80345 24.9495 9.86828 21.3832C9.89689 19.7906 10.2249 18.1738 10.5414 16.8023C10.7188 16.0348 11.0239 15.297 11.3461 14.5147C11.8553 13.4126 12.3358 12.6173 12.6943 12.0858L12.845 11.8832C14.2313 10.0155 15.6405 8.69793 17.2442 7.77431L18.2263 15.3435H35.7775L36.7596 7.77617C36.9617 7.88953 37.1429 7.99546 37.3088 8.1144C41.7118 11.2662 44.0097 15.6873 44.1413 21.2532C44.2233 24.7283 44.2023 28.2667 44.1813 31.688C44.1737 32.9833 44.166 34.2767 44.1622 35.572C44.1603 36.6443 43.8133 37.4545 43.1325 37.9823C42.3983 38.551 41.3152 38.7517 40.049 38.5621C40.0757 38.5212 40.1024 38.4804 40.1291 38.4395C41.5631 36.2577 42.2858 34.2005 42.3373 32.147C42.3774 30.5228 42.3678 28.8707 42.3583 27.2743C42.3545 26.5997 42.3507 25.927 42.3488 25.2524C42.3488 25.1502 42.3259 25.0591 42.3049 24.9811C42.2973 24.9513 42.2877 24.9179 42.2801 24.8807L42.2191 24.5982L41.9235 24.5852C41.8301 24.5815 41.7404 24.5759 41.6527 24.5704C41.4945 24.5611 41.3438 24.5536 41.1913 24.5499C35.89 24.4737 30.7261 23.303 25.8444 21.0692C24.2464 20.3388 22.6313 19.445 21.6339 17.8653C21.428 17.5438 20.9494 17.4472 20.7263 17.4416C16.5654 17.3208 12.2214 20.9447 11.7866 24.89ZM17.0383 37.8913C15.2324 35.6129 14.4144 33.2973 14.5402 30.8108C14.5936 29.7162 14.5803 28.6068 14.5669 27.5345C14.5612 27.068 14.5555 26.6016 14.5555 26.1333C14.5517 22.7213 17.6752 20.8053 19.6469 20.3983C19.6622 20.3946 19.6813 20.3927 19.7022 20.3927C19.7995 20.3927 19.933 20.428 19.9711 20.4615C22.0363 22.6525 24.7575 23.8419 27.3909 24.8027C31.2887 26.2225 35.3313 27.0773 39.4102 27.3449C39.414 27.8318 39.4274 28.3169 39.4407 28.7889C39.475 30.0638 39.5075 31.268 39.3797 32.4685C39.0631 35.4233 37.4575 37.9897 34.4751 40.3164C31.8054 42.3978 28.7467 43.3066 25.6289 42.9423C22.3681 42.5632 19.3189 40.7699 17.0383 37.8913ZM24.4791 54.8193C24.3952 54.3751 24.3151 53.9272 24.2388 53.4887C24.0176 52.2398 23.7888 50.9482 23.4512 49.6957C23.1309 48.5082 23.3368 47.3709 23.5561 46.1666C23.5981 45.9343 23.6419 45.6965 23.682 45.4549C25.9455 45.9827 28.1232 45.9845 30.3123 45.4567C30.6289 46.9787 30.9168 48.4208 30.5183 49.9076C30.1979 51.1006 29.9748 52.3346 29.7612 53.5295C29.6849 53.9533 29.6068 54.3881 29.5248 54.8193H24.4791ZM28.9489 57.7351L27.9458 62.8828H26.0599L25.627 60.688C25.4344 59.7124 25.2418 58.7293 25.0454 57.7351H28.9489ZM43.6455 69.1307V61.8439H40.7412V69.1381L13.2855 69.1883V61.8291H10.3812V69.1307H3.27989C3.41719 68.2869 3.55258 67.4451 3.68797 66.607C4.03884 64.4327 4.40116 62.184 4.79017 59.9874C5.21922 57.5641 6.65513 55.8228 9.05594 54.8137C11.3976 53.8287 13.8042 52.8754 16.1287 51.9518C17.084 51.5727 18.0375 51.1936 18.9929 50.8126C19.4162 50.6435 19.8414 50.4781 20.3067 50.2978C20.404 50.2606 20.5031 50.2216 20.6061 50.1826L23.6591 65.7168H30.3447L33.3958 50.177L33.945 50.3907C34.6753 50.6751 35.3771 50.9482 36.075 51.2233C37.0208 51.5968 37.9667 51.9722 38.9106 52.3458C40.6192 53.0241 42.3888 53.7265 44.1336 54.403C47.2476 55.6109 48.981 57.7221 49.4348 60.8534C49.7228 62.8345 50.0336 64.8527 50.3349 66.804C50.4531 67.577 50.5733 68.352 50.6915 69.1307H43.6455Z" fill="#767676"/>
</svg>
