<svg width="464" height="158" viewBox="0 0 464 158" fill="none" xmlns="http://www.w3.org/2000/svg">
<g clip-path="url(#clip0_590_35050)">
<path d="M385.18 122.34V152.441" stroke="#114474" strokeWidth="3" stroke-miterlimit="10" strokeLinecap="round" strokeLinejoin="round"/>
<path d="M406.262 100.542C406.262 112.783 396.312 122.709 384.04 122.709C371.769 122.709 361.818 112.783 361.818 100.542C361.818 88.3007 371.769 78.375 384.04 78.375C396.312 78.3897 406.262 88.3007 406.262 100.542Z" fill="#F9F9F9" stroke="#114474" strokeWidth="3" stroke-miterlimit="10"/>
<path d="M440.711 122.34V152.441" stroke="#114474" strokeWidth="3" stroke-miterlimit="10" strokeLinecap="round" strokeLinejoin="round"/>
<path d="M461.782 100.542C461.782 112.783 451.831 122.709 439.56 122.709C427.288 122.709 417.338 112.783 417.338 100.542C417.338 88.3007 427.288 78.375 439.56 78.375C451.831 78.3897 461.782 88.3007 461.782 100.542Z" fill="#F9F9F9" stroke="#114474" strokeWidth="3" stroke-miterlimit="10"/>
<path d="M398.238 153.9C398.238 142.16 407.789 132.633 419.558 132.633C431.327 132.633 440.878 142.146 440.878 153.9H398.238Z" fill="#F9F9F9" stroke="#114474" strokeWidth="3" stroke-miterlimit="10"/>
<path d="M398.238 153.9C398.238 142.16 407.789 132.633 419.558 132.633C431.327 132.633 440.878 142.146 440.878 153.9H398.238Z" fill="#F9F9F9" stroke="#114474" strokeWidth="3" stroke-miterlimit="10" strokeLinecap="round" strokeLinejoin="round"/>
<path d="M385.227 153.902C385.227 146.159 391.51 139.891 399.272 139.891C407.035 139.891 413.318 146.159 413.318 153.902H385.227Z" fill="#F9F9F9" stroke="#114474" strokeWidth="3" stroke-miterlimit="10"/>
<path d="M385.227 153.902C385.227 146.159 391.51 139.891 399.272 139.891C407.035 139.891 413.318 146.159 413.318 153.902H385.227Z" fill="#F9F9F9" stroke="#114474" strokeWidth="3" stroke-miterlimit="10" strokeLinecap="round" strokeLinejoin="round"/>
<path d="M345.41 29.8203L345.469 46.6483L345.779 154.002L316.505 154.091L263.959 154.253L214.577 154.386L214.207 30.2185L345.41 29.8203Z" fill="#F9F9F9" stroke="#114474" strokeWidth="3" stroke-miterlimit="10"/>
<path d="M187.548 44.9085C186.188 44.9085 185.257 43.8614 185.745 42.888L223.801 2.50678L320.318 2.22656L360.356 44.4218L187.548 44.9085Z" fill="#F9F9F9" stroke="#114474" strokeWidth="3" stroke-miterlimit="10" strokeLinejoin="bevel"/>
<path d="M91.6966 154.821L217.725 154.445L217.425 54.3477L91.397 54.723L91.6966 154.821Z" fill="#F9F9F9" stroke="#114474" strokeWidth="3" stroke-miterlimit="10"/>
<path d="M80.8972 61.4903L228.541 61.0508L228.512 51.3611L80.8683 51.8006L80.8972 61.4903Z" fill="#F9F9F9" stroke="#114474" strokeWidth="3" stroke-miterlimit="10"/>
<path d="M240.775 28.7148L115.93 29.0836L74.2949 51.9141L240.849 51.4127L240.775 28.7148Z" fill="#F9F9F9" stroke="#114474" strokeWidth="3" stroke-miterlimit="10" strokeLinejoin="bevel"/>
<path d="M247.605 23.5234L281.108 46.8407L281.433 154.195L214.575 154.386L214.28 56.7664L214.25 47.0472L247.605 23.5234Z" fill="#F9F9F9" stroke="#114474" strokeWidth="3" stroke-miterlimit="10"/>
<path d="M209.312 54.2293L247.62 27.2249L286.504 54.2883H297.091L247.605 19.8359L198.844 54.1998L209.312 54.2293Z" fill="#F9F9F9" stroke="#114474" strokeWidth="3" stroke-miterlimit="10" strokeLinejoin="bevel"/>
<path d="M107.024 154.283L191.742 154.031L191.566 95.067L106.847 95.3192L107.024 154.283Z" fill="#F9F9F9" stroke="#114474" strokeWidth="3" stroke-miterlimit="10"/>
<path d="M170.381 95.1294L191.568 95.0664L191.537 84.418L170.35 84.481L170.381 95.1294Z" fill="#F9F9F9" stroke="#114474" strokeWidth="3" stroke-miterlimit="10"/>
<path d="M149.206 95.1803L170.393 95.1172L170.361 84.4688L149.174 84.532L149.206 95.1803Z" fill="#F9F9F9" stroke="#114474" strokeWidth="3" stroke-miterlimit="10"/>
<path d="M128.03 95.2505L149.217 95.1875L149.185 84.5391L127.998 84.6021L128.03 95.2505Z" fill="#F9F9F9" stroke="#114474" strokeWidth="3" stroke-miterlimit="10"/>
<path d="M106.838 95.317L128.025 95.2539L127.993 84.6055L106.806 84.6687L106.838 95.317Z" fill="#F9F9F9" stroke="#114474" strokeWidth="3" stroke-miterlimit="10"/>
<path d="M191.599 105.23L106.881 105.482" stroke="#114474" strokeWidth="3" stroke-miterlimit="10"/>
<path d="M191.629 115.156L106.91 115.408" stroke="#114474" strokeWidth="3" stroke-miterlimit="10"/>
<path d="M191.658 125.082L106.939 125.348" stroke="#114474" strokeWidth="3" stroke-miterlimit="10"/>
<path d="M191.687 135.023L106.969 135.275" stroke="#114474" strokeWidth="3" stroke-miterlimit="10"/>
<path d="M191.718 144.949L107 145.201" stroke="#114474" strokeWidth="3" stroke-miterlimit="10"/>
<path d="M345.742 139.09L214.539 139.48L214.584 154.391L345.786 154L345.742 139.09Z" fill="#F9F9F9" stroke="#114474" strokeWidth="3" stroke-miterlimit="10"/>
<path d="M345.742 139.101L281.383 139.293L281.427 154.204L345.787 154.012L345.742 139.101Z" fill="#F9F9F9" stroke="#114474" strokeWidth="3" stroke-miterlimit="10"/>
<path d="M230.929 139.212L266.709 139.105L266.53 79.448L230.75 79.5547L230.929 139.212Z" fill="#F9F9F9" stroke="#114474" strokeWidth="3" stroke-miterlimit="10"/>
<path d="M237.374 139.341L260.246 139.273L260.094 88.2586L237.221 88.3265L237.374 139.341Z" fill="#F9F9F9" stroke="#114474" strokeWidth="3" stroke-miterlimit="10"/>
<path d="M223.979 139.237L273.642 139.09C273.627 135.122 270.404 131.922 266.426 131.922L231.164 132.025C227.187 132.04 223.979 135.27 223.979 139.237Z" fill="#F9F9F9" stroke="#114474" strokeWidth="3" stroke-miterlimit="10"/>
<path d="M254.717 111.395L248.848 111.572" stroke="#114474" strokeWidth="3" stroke-miterlimit="10"/>
<path d="M224.032 154.355L273.695 154.207L273.65 139.075L223.987 139.223L224.032 154.355Z" fill="#F9F9F9" stroke="#114474" strokeWidth="3" stroke-miterlimit="10"/>
<path d="M224.032 154.355L273.695 154.207L273.673 146.641L224.01 146.789L224.032 154.355Z" fill="#F9F9F9" stroke="#114474" strokeWidth="3" stroke-miterlimit="10"/>
<path d="M299.85 110.757L327.113 110.676L326.996 71.5187L299.733 71.5998L299.85 110.757Z" fill="#F9F9F9" stroke="#114474" strokeWidth="3" stroke-miterlimit="10"/>
<path d="M313.385 78.7852L313.473 110.716" stroke="#114474" strokeWidth="3" stroke-miterlimit="10"/>
<path d="M327.045 90.5391L299.781 90.613" stroke="#114474" strokeWidth="3" stroke-miterlimit="10"/>
<path d="M327.045 78.7852L299.781 78.8739" stroke="#114474" strokeWidth="3" stroke-miterlimit="10"/>
<path d="M327.074 100.656L299.811 100.745" stroke="#114474" strokeWidth="3" stroke-miterlimit="10"/>
<path d="M235.258 69.4835L262.521 69.4023L262.461 49.2707L235.198 49.3518L235.258 69.4835Z" fill="#F9F9F9" stroke="#114474" strokeWidth="3" stroke-miterlimit="10"/>
<path d="M248.816 49.3047L248.876 69.4363" stroke="#114474" strokeWidth="3" stroke-miterlimit="10"/>
<path d="M262.479 59.3945L235.215 59.4685" stroke="#114474" strokeWidth="3" stroke-miterlimit="10"/>
<path d="M133.862 36.9206L149.164 36.875L149.12 22.0823L133.817 22.1279L133.862 36.9206Z" fill="#F9F9F9" stroke="#114474" strokeWidth="3" stroke-miterlimit="10"/>
<path d="M130.718 22.1423L152.23 22.0781L152.201 12.1967L130.689 12.2608L130.718 22.1423Z" fill="#F9F9F9" stroke="#114474" strokeWidth="3" stroke-miterlimit="10"/>
<path d="M385.226 153.899L302.074 154.15C302.059 149.489 306.998 145.684 313.104 145.669L374.151 145.492C380.258 145.477 385.211 149.238 385.226 153.899Z" fill="#F9F9F9" stroke="#114474" strokeWidth="3" stroke-miterlimit="10"/>
<path d="M329.174 11.4883H292.67" stroke="#114474" strokeWidth="3" stroke-miterlimit="10"/>
<path d="M279.999 11.4883C279.023 11.4883 269.191 11.4883 269.191 11.4883H279.999Z" fill="#F9F9F9"/>
<path d="M279.999 11.4883C279.023 11.4883 269.191 11.4883 269.191 11.4883" stroke="#114474" strokeWidth="3" stroke-miterlimit="10"/>
<path d="M215.344 11.4883H253.327" stroke="#114474" strokeWidth="3" stroke-miterlimit="10"/>
<path d="M274.588 17.168H286.002" stroke="#114474" strokeWidth="3" stroke-miterlimit="10"/>
<path d="M302.502 17.168H295.523" stroke="#114474" strokeWidth="3" stroke-miterlimit="10"/>
<path d="M265.703 17.168H238.721" stroke="#114474" strokeWidth="3" stroke-miterlimit="10"/>
<path d="M219.691 17.168H209.992" stroke="#114474" strokeWidth="3" stroke-miterlimit="10"/>
<path d="M292.67 28.7148H315.705" stroke="#114474" strokeWidth="3" stroke-miterlimit="10"/>
<path d="M323.615 28.7148H330.86" stroke="#114474" strokeWidth="3" stroke-miterlimit="10"/>
<path d="M281.435 29.8203H261.135" stroke="#114474" strokeWidth="3" stroke-miterlimit="10"/>
<path d="M149.166 36.8867H184.606" stroke="#114474" strokeWidth="3" stroke-miterlimit="10"/>
<path d="M192.383 36.8867H196.877" stroke="#114474" strokeWidth="3" stroke-miterlimit="10"/>
<path d="M157.565 44.0664H130.789" stroke="#114474" strokeWidth="3" stroke-miterlimit="10"/>
<path d="M124.386 44.0664H115.914" stroke="#114474" strokeWidth="3" stroke-miterlimit="10"/>
<path d="M163.67 44.0664H172.142" stroke="#114474" strokeWidth="3" stroke-miterlimit="10"/>
<path d="M101.707 36.8867H114.008" stroke="#114474" strokeWidth="3" stroke-miterlimit="10"/>
<path d="M45.0361 65.808C46.0119 66.9436 46.6624 69.1559 46.6624 70.6455V100.142L58.7862 112.118C59.8507 113.165 61.1518 115.141 61.6841 116.528L74.2514 148.547C75.3455 151.319 73.9113 154.269 71.0578 155.139L69.7863 155.523C66.9328 156.393 63.8131 154.83 62.8077 152.027L52.3399 122.811C52.0442 121.97 51.2754 120.79 50.6396 120.156L31.5817 101.617C30.5171 100.585 29.704 98.5348 29.7631 97.0452L29.6744 74.5538C29.7335 73.0642 28.7725 72.5185 27.5306 73.3297L19.8127 77.71C19.0587 78.1967 18.3786 79.3175 18.2751 80.2024L16.3235 98.1513C15.9982 101.116 13.4404 103.284 10.6164 103.004C7.77769 102.723 5.78171 100.098 6.13655 97.1484L8.67958 76.1466C8.857 74.6718 10.025 72.8282 11.2818 72.0171L30.6206 59.7021C31.8774 58.9057 34.0656 58.596 35.4406 59.1417C39.2403 60.6608 42.493 62.8288 45.0361 65.808Z" fill="#F9F9F9" stroke="#114474" strokeWidth="3" stroke-miterlimit="10"/>
<path d="M25.1206 106.927L3.06129 144.712C1.46451 147.219 2.20376 150.553 4.71722 152.16L4.92421 152.293C7.43768 153.886 10.8235 153.178 12.4646 150.7L33.8586 115.672C34.3613 114.935 34.243 113.814 33.6073 113.18L27.1166 106.705C26.5104 106.071 25.6085 106.174 25.1206 106.927Z" fill="#F9F9F9" stroke="#114474" strokeWidth="3" stroke-miterlimit="10"/>
<path d="M54.0251 93.3734L62.9849 101.102C65.2618 103.019 68.4702 102.96 70.1409 100.954C71.8116 98.9483 71.3385 95.7479 69.0764 93.8011L54.0104 80.7192C53.3302 80.144 52.7832 80.3948 52.7832 81.2797V90.7039C52.7832 91.6036 53.345 92.7982 54.0251 93.3734Z" fill="#F9F9F9" stroke="#114474" strokeWidth="3" stroke-miterlimit="10"/>
<path d="M43.6915 55.4532C50.8327 56.7954 56.9685 50.6748 55.6083 43.566C54.8543 39.5839 51.6311 36.3835 47.6539 35.6313C40.5127 34.2892 34.3769 40.4098 35.7372 47.5186C36.4912 51.5007 39.7143 54.7011 43.6915 55.4532Z" fill="#F9F9F9" stroke="#114474" strokeWidth="3" stroke-miterlimit="10"/>
</g>
<defs>
<clipPath id="clip0_590_35050">
<rect width="464" height="158" fill="white"/>
</clipPath>
</defs>
</svg>
